<svg version="1.1" id="Layer_1" xmlns="http://www.w3.org/2000/svg" xmlns:xlink="http://www.w3.org/1999/xlink" x="0px" y="0px"
	 width="100%" viewBox="0 0 654 428" enable-background="new 0 0 654 428" xml:space="preserve">
<path fill="#FFFFFF" opacity="1.000000" stroke="none" 
	d="
M358.000000,429.000000 
	C238.694107,429.000000 119.888229,429.000000 1.041170,429.000000 
	C1.041170,286.393738 1.041170,143.787476 1.041170,1.090597 
	C218.889206,1.090597 436.778473,1.090597 654.833862,1.090597 
	C654.833862,143.666519 654.833862,286.333252 654.833862,429.000000 
	C556.120789,429.000000 457.310394,429.000000 358.000000,429.000000 
M367.499817,324.700897 
	C410.164246,324.700684 452.828705,324.718445 495.493134,324.692017 
	C514.273682,324.680359 525.995300,312.881439 525.998108,294.059479 
	C526.006042,240.895432 526.005554,187.731369 525.998291,134.567322 
	C525.995728,115.756874 514.266479,104.002190 495.490234,104.001266 
	C383.829071,103.995796 272.167877,103.995781 160.506714,104.001274 
	C141.731812,104.002197 130.004303,115.757553 130.001694,134.570343 
	C129.994370,187.234421 130.395752,239.903107 129.781143,292.560028 
	C129.569778,310.668762 141.692322,324.999939 162.010895,324.868408 
	C230.171356,324.427124 298.336456,324.700836 367.499817,324.700897 
z"/>
<path fill="#010101" opacity="1.000000" stroke="none" 
	d="
M366.999786,324.700867 
	C298.336456,324.700836 230.171356,324.427124 162.010895,324.868408 
	C141.692322,324.999939 129.569778,310.668762 129.781143,292.560028 
	C130.395752,239.903107 129.994370,187.234421 130.001694,134.570343 
	C130.004303,115.757553 141.731812,104.002197 160.506714,104.001274 
	C272.167877,103.995781 383.829071,103.995796 495.490234,104.001266 
	C514.266479,104.002190 525.995728,115.756874 525.998291,134.567322 
	C526.005554,187.731369 526.006042,240.895432 525.998108,294.059479 
	C525.995300,312.881439 514.273682,324.680359 495.493134,324.692017 
	C452.828705,324.718445 410.164246,324.700684 366.999786,324.700867 
M469.527374,188.500275 
	C469.527374,180.107010 469.527374,171.713760 469.527374,163.340775 
	C454.136932,163.340775 439.692047,163.340775 425.195221,163.340775 
	C414.680573,188.352600 404.224548,213.224960 393.723694,238.203979 
	C393.281158,237.760345 392.950714,237.573547 392.841187,237.298721 
	C383.539062,213.958206 374.297150,190.593430 364.876343,167.301010 
	C364.208008,165.648483 362.257111,163.362381 360.862366,163.333817 
	C346.570923,163.041077 332.271210,163.154480 317.724548,163.154480 
	C317.724548,197.232300 317.724548,230.971466 317.724548,264.853546 
	C326.142181,264.853546 334.349518,264.853546 343.092896,264.853546 
	C343.092896,237.620056 343.092896,210.710419 343.092896,183.800797 
	C354.288696,209.788681 364.861786,235.799500 375.378845,261.832947 
	C376.371307,264.289703 377.717346,265.359863 380.574188,265.263611 
	C387.896271,265.016998 395.243225,264.942047 402.558075,265.279205 
	C406.391174,265.455872 408.067535,264.034088 409.429749,260.593384 
	C418.211975,238.411301 427.192535,216.307541 436.161011,194.199585 
	C437.452820,191.015152 439.029602,187.946335 440.474487,184.824005 
	C440.872131,184.943314 441.269745,185.062622 441.667389,185.181931 
	C441.667389,211.751892 441.667389,238.321869 441.667389,265.023682 
	C451.114929,265.023682 460.079315,265.023682 469.527344,265.023682 
	C469.527344,239.746201 469.527344,214.623260 469.527374,188.500275 
M298.001801,192.762741 
	C296.279541,178.963440 288.176147,170.347275 275.615417,165.506210 
	C259.413269,159.261719 242.766708,159.497803 226.037842,162.691849 
	C212.972870,165.186340 201.818069,171.224640 194.540176,182.648743 
	C186.784225,194.823257 185.837738,208.584213 187.044479,222.557724 
	C188.948792,244.608932 201.626602,259.945374 223.082275,265.471313 
	C240.402481,269.932159 257.816925,268.738892 274.731384,263.500824 
	C290.136597,258.730164 299.313171,245.211060 298.233978,230.479050 
	C288.940125,230.479050 279.621216,230.368408 270.312164,230.620605 
	C269.162445,230.651749 267.857422,232.470642 266.985077,233.714142 
	C264.930878,236.642380 263.744080,240.608902 261.052917,242.582962 
	C251.550720,249.553238 230.850876,248.879227 223.182861,236.456482 
	C216.090439,224.966217 215.482971,212.638428 219.236237,200.061951 
	C222.749466,188.289795 231.441864,182.005630 245.129242,181.644897 
	C255.840881,181.362610 264.265442,183.428040 268.367126,196.842361 
	C277.291718,196.842361 286.280151,196.747849 295.264343,196.900726 
	C297.913025,196.945816 298.415649,195.854172 298.001801,192.762741 
z"/>
<path fill="#F9F9F9" opacity="1.000000" stroke="none" 
	d="
M469.527344,189.000290 
	C469.527344,214.623260 469.527344,239.746201 469.527344,265.023682 
	C460.079315,265.023682 451.114929,265.023682 441.667389,265.023682 
	C441.667389,238.321869 441.667389,211.751892 441.667389,185.181931 
	C441.269745,185.062622 440.872131,184.943314 440.474487,184.824005 
	C439.029602,187.946335 437.452820,191.015152 436.161011,194.199585 
	C427.192535,216.307541 418.211975,238.411301 409.429749,260.593384 
	C408.067535,264.034088 406.391174,265.455872 402.558075,265.279205 
	C395.243225,264.942047 387.896271,265.016998 380.574188,265.263611 
	C377.717346,265.359863 376.371307,264.289703 375.378845,261.832947 
	C364.861786,235.799500 354.288696,209.788681 343.092896,183.800797 
	C343.092896,210.710419 343.092896,237.620056 343.092896,264.853546 
	C334.349518,264.853546 326.142181,264.853546 317.724548,264.853546 
	C317.724548,230.971466 317.724548,197.232300 317.724548,163.154480 
	C332.271210,163.154480 346.570923,163.041077 360.862366,163.333817 
	C362.257111,163.362381 364.208008,165.648483 364.876343,167.301010 
	C374.297150,190.593430 383.539062,213.958206 392.841187,237.298721 
	C392.950714,237.573547 393.281158,237.760345 393.723694,238.203979 
	C404.224548,213.224960 414.680573,188.352600 425.195221,163.340775 
	C439.692047,163.340775 454.136932,163.340775 469.527374,163.340775 
	C469.527374,171.713760 469.527374,180.107010 469.527344,189.000290 
z"/>
<path fill="#FAFAFA" opacity="1.000000" stroke="none" 
	d="
M298.005066,193.208557 
	C298.415649,195.854172 297.913025,196.945816 295.264343,196.900726 
	C286.280151,196.747849 277.291718,196.842361 268.367126,196.842361 
	C264.265442,183.428040 255.840881,181.362610 245.129242,181.644897 
	C231.441864,182.005630 222.749466,188.289795 219.236237,200.061951 
	C215.482971,212.638428 216.090439,224.966217 223.182861,236.456482 
	C230.850876,248.879227 251.550720,249.553238 261.052917,242.582962 
	C263.744080,240.608902 264.930878,236.642380 266.985077,233.714142 
	C267.857422,232.470642 269.162445,230.651749 270.312164,230.620605 
	C279.621216,230.368408 288.940125,230.479050 298.233978,230.479050 
	C299.313171,245.211060 290.136597,258.730164 274.731384,263.500824 
	C257.816925,268.738892 240.402481,269.932159 223.082275,265.471313 
	C201.626602,259.945374 188.948792,244.608932 187.044479,222.557724 
	C185.837738,208.584213 186.784225,194.823257 194.540176,182.648743 
	C201.818069,171.224640 212.972870,165.186340 226.037842,162.691849 
	C242.766708,159.497803 259.413269,159.261719 275.615417,165.506210 
	C288.176147,170.347275 296.279541,178.963440 298.005066,193.208557 
z"/>
</svg>